<?xml version="1.0" encoding="UTF-8" standalone="no"?>
<svg
   xmlns:dc="http://purl.org/dc/elements/1.1/"
   xmlns:cc="http://creativecommons.org/ns#"
   xmlns:rdf="http://www.w3.org/1999/02/22-rdf-syntax-ns#"
   xmlns:svg="http://www.w3.org/2000/svg"
   xmlns="http://www.w3.org/2000/svg"
   xmlns:sodipodi="http://sodipodi.sourceforge.net/DTD/sodipodi-0.dtd"
   xmlns:inkscape="http://www.inkscape.org/namespaces/inkscape"
   version="1.0"
   width="474.000000pt"
   height="474.000000pt"
   viewBox="0 0 474.000000 474.000000"
   preserveAspectRatio="xMidYMid meet"
   id="svg14"
   sodipodi:docname="outline.svg"
   inkscape:version="1.0 (4035a4fb49, 2020-05-01)">
  <defs
     id="defs18" />
  <sodipodi:namedview
     inkscape:snap-global="true"
     inkscape:document-rotation="0"
     pagecolor="#ffffff"
     bordercolor="#666666"
     borderopacity="1"
     objecttolerance="10"
     gridtolerance="10"
     guidetolerance="10"
     inkscape:pageopacity="0"
     inkscape:pageshadow="2"
     inkscape:window-width="3840"
     inkscape:window-height="2047"
     id="namedview16"
     showgrid="false"
     inkscape:zoom="1.1313291"
     inkscape:cx="316"
     inkscape:cy="325.5982"
     inkscape:window-x="3840"
     inkscape:window-y="0"
     inkscape:window-maximized="1"
     inkscape:current-layer="layer2" />
  <metadata
     id="metadata2">
Created by potrace 1.16, written by Peter Selinger 2001-2019
<rdf:RDF>
  <cc:Work
     rdf:about="">
    <dc:format>image/svg+xml</dc:format>
    <dc:type
       rdf:resource="http://purl.org/dc/dcmitype/StillImage" />
  </cc:Work>
</rdf:RDF>
</metadata>
  <g
     inkscape:label="Layer 1"
     id="layer1"
     inkscape:groupmode="layer">
    <rect
       y="52.601452"
       x="51.430382"
       height="359.0094"
       width="369.23102"
       id="rect12"
       style="fill:#ffffff;stroke-width:2.83465;fill-opacity:1" />
  </g>
  <g
     inkscape:label="Layer 2"
     id="layer2"
     inkscape:groupmode="layer">
    <g
       transform="matrix(0.1,0,0,-0.1,0,474)"
       fill="#000000"
       stroke="none"
       id="g12"
       style="fill:#19b9fd;fill-opacity:1">
      <path
         d="M1090 4679 c-112 -13 -227 -38 -300 -66 -216 -81 -402 -250 -505 -458 -50 -102 -75 -192 -107 -385 -22 -133 -22 -151 -26 -1330 -2 -841 0 -1229 8 -1310 31 -312 112 -503 290 -680 171 -172 348 -251 640 -285 185 -22 2375 -22 2560 0 292 34 469 113 640 285 178 177 259 368 290 680 8 81 10 469 8 1310 -4 1179 -4 1197 -26 1330 -32 193 -57 283 -107 385 -108 219 -312 397 -538 469 -194 62 -134 59 -1502 62 -687 1 -1284 -2 -1325 -7z m1946 -550 c84 -40 114 -102 155 -314 175 -900 167 -1859 -22 -2766 -24 -119 -99 -207 -181 -216 -59 -5 -2052 455 -2102 487 -36 22 -76 90 -76 128 0 13 11 84 25 160 112 602 110 1196 -6 1796 -19 98 -21 122 -10 155 14 49 51 95 90 110 35 15 2026 478 2060 480 14 1 44 -8 67 -20z m634 -131 c55 -28 104 -97 119 -169 136 -633 173 -1347 105 -2009 -29 -287 -98 -679 -129 -742 -35 -68 -98 -118 -150 -118 -23 0 -295 58 -303 65 -2 2 8 61 22 131 166 856 166 1800 0 2663 -13 69 -22 127 -19 129 6 6 266 70 290 71 12 1 41 -9 65 -21z"
         id="path4"
         style="fill:#19b9fd;fill-opacity:1" />
      <path
         d="M2044 3346 c-442 -61 -597 -86 -617 -99 -55 -36 -83 -108 -66 -170 14 -51 66 -107 108 -115 19 -4 297 14 625 40 661 53 644 50 684 128 36 71 27 164 -21 234 -18 26 -89 67 -112 65 -5 -1 -276 -38 -601 -83z"
         id="path6"
         style="fill:#19b9fd;fill-opacity:1" />
      <path
         d="M2105 2663 c-308 -8 -578 -19 -599 -25 -105 -26 -150 -165 -79 -248 49 -59 31 -57 677 -75 329 -9 611 -13 627 -10 15 4 43 24 62 45 100 109 43 314 -89 325 -21 1 -291 -4 -599 -12z"
         id="path8"
         style="fill:#19b9fd;fill-opacity:1" />
      <path
         d="M1441 2003 c-105 -52 -113 -216 -13 -275 22 -13 165 -36 513 -83 266 -36 535 -73 597 -81 62 -9 124 -13 137 -10 39 10 92 63 111 111 22 58 16 154 -12 192 -45 59 -62 65 -236 80 -610 50 -1020 83 -1040 83 -13 0 -38 -8 -57 -17z"
         id="path10"
         style="fill:#19b9fd;fill-opacity:1" />
    </g>
  </g>
</svg>
